<svg width="384" height="385" viewBox="0 0 384 385" fill="none" xmlns="http://www.w3.org/2000/svg">
<g clip-path="url(#clip0_797_6221)">
<circle cx="192" cy="192.5" r="192" fill="black"/>
<path d="M345.581 172.983C343.91 148.676 302.611 142.974 283.757 140.708C271.008 139.345 258.249 138.846 245.529 138.894C245.568 108.836 242.793 47.2713 215.318 39.4185C193.2 34.4073 177.984 67.0185 170.285 86.8041C143.232 72.9225 112.963 64.5417 90.3838 76.8873C58.1182 96.6057 72.3262 140.9 87.187 169.076C83.8558 170.43 80.5438 171.812 77.2606 173.29C62.3134 180.433 34.9342 194.727 38.7934 214.81C45.4654 243.802 113.76 244.446 140.966 243.457C140.093 271.7 140.861 330.692 164.726 343.863C179.606 351.716 193.565 337.278 200.947 325.767C206.419 317.05 211.219 307.431 215.433 297.255C228.854 304.311 243.254 310.177 258.336 312.586C273.984 315.236 292.541 312.836 303.427 299.866C322.406 277.172 311.52 241.527 297.629 214.186C302.64 212.247 307.603 210.135 312.489 207.774C325.536 201.226 345.84 190.033 345.581 172.993V172.983ZM184.857 76.0713C189.571 67.2201 201.177 46.8777 212.582 49.6617C217.43 51.3897 219.993 55.7481 222.355 60.4521C231.005 80.3049 232.349 106.743 231.993 130.206C227.424 126.097 222.749 122.094 217.958 118.234C207.609 109.815 193.517 99.6585 177.936 90.9129C180.057 85.8441 182.342 80.8713 184.857 76.0617V76.0713ZM84.8062 140.497C79.1614 122.506 76.4254 96.6345 95.5774 86.0361C128.275 69.1977 184.857 107.223 209.549 128.458C213.936 132.154 218.227 135.966 222.432 139.882C213.974 140.526 205.545 141.39 197.136 142.436C162.547 146.996 128.016 153.716 95.2798 165.927C91.1038 157.69 87.475 149.204 84.8158 140.497H84.8062ZM144.547 234.942V234.903C144.566 234.903 144.585 234.903 144.605 234.903L144.557 234.951L144.547 234.942ZM49.843 215.367C45.0046 206.18 57.7054 197.146 64.6078 192.586C101.568 170.343 155.942 160.522 198.662 155.578C206.909 154.695 215.165 153.985 223.421 153.495L144.643 234.836C122.304 235.546 62.275 234.414 49.8334 215.367H49.843ZM214.118 264.865C208.656 283.94 202.281 303.034 191.837 319.825C187.296 326.708 178.243 339.438 169.056 334.59C161.309 329.751 157.651 317.578 155.309 308.967C149.702 288.039 149.136 256.321 149.52 239.886L149.337 239.847L230.918 160.974C230.429 169.239 229.728 177.505 228.835 185.761C225.926 212.43 221.261 239.012 214.109 264.855L214.118 264.865ZM301.603 259.594C303.254 269.396 303.197 280.071 298.454 288.759C283.171 315.361 241.997 301.086 218.601 289.239C230.918 256.484 237.773 219.073 241.997 187.306C243.043 178.926 243.897 170.526 244.541 162.097C270.086 189.543 294.605 223.614 301.603 259.604V259.594ZM293.52 206.468C291.043 202.014 288.547 197.886 286.185 194.17C276.739 179.329 265.92 165.438 254.169 152.382C281.337 152.103 324.153 154.58 334.089 170.247C337.536 176.823 331.152 183.582 326.141 187.988C316.694 195.898 305.097 201.61 293.51 206.458L293.52 206.468Z" fill="white"/>
</g>
<defs>
<clipPath id="clip0_797_6221">
<rect y="0.5" width="384" height="384" rx="192" fill="white"/>
</clipPath>
</defs>
</svg>
